<svg width="188" height="142" viewBox="0 0 188 142" fill="none" xmlns="http://www.w3.org/2000/svg">
<g opacity="0.504511">
<path opacity="0.504511" fill-rule="evenodd" clip-rule="evenodd" d="M173.641 113.595C176.047 129.975 117.692 140.659 67.465 133.203C17.2379 125.747 -5.80392 96.6304 18.1636 81.1161C42.1311 65.6017 171.234 97.2159 173.641 113.595Z" fill="#F58B3D"/>
</g>
<path fill-rule="evenodd" clip-rule="evenodd" d="M101.453 45.3416C102.361 44.71 103.77 45.1124 104.684 45.4853C105.036 45.629 105.936 46.0889 106.604 46.6065C106.515 46.2478 106.437 45.8859 106.368 45.5211C106.086 44.0211 105.891 42.4925 105.798 40.973C105.773 40.5765 105.805 40.1337 105.837 39.6851V39.6843C105.848 39.5326 105.859 39.3801 105.868 39.2285C105.831 39.1928 105.806 39.1432 105.796 39.0763C105.792 39.1041 105.79 39.1263 105.788 39.1434C105.786 39.1711 105.784 39.1849 105.78 39.1859C105.775 39.1871 105.766 39.1754 105.749 39.1518C105.743 39.1427 105.735 39.1318 105.726 39.1191C105.05 38.1996 104.483 37.1631 104.405 36.0238C104.339 35.0579 105.211 33.2298 106.447 34.4953C107 35.0605 106.856 39.0298 106.026 39.2728C106.247 40.5882 106.527 41.9013 106.876 43.1976C106.928 43.1892 106.982 43.1885 107.034 43.195C107.03 42.8728 107.029 42.5211 107.043 42.4001C107.168 41.3583 108.124 39.2433 109.646 39.6538C110.815 39.9696 110.098 41.2687 109.7 41.8372C109.06 42.7527 108.335 43.149 107.417 43.6251C107.399 43.8219 107.26 43.9363 107.095 43.9734C107.71 46.067 108.517 48.1088 109.573 50.0377L109.601 49.915C109.736 49.3295 109.892 48.6471 109.991 48.5037C110.509 47.7533 111.655 46.8369 112.712 47.2808C114.932 48.2146 112.522 50.8982 110.632 51.1901C110.554 51.2889 110.471 51.3685 110.382 51.414C110.749 51.9962 111.142 52.5664 111.562 53.1218C112.192 53.9572 112.869 54.7898 113.578 55.6178C113.6 54.9702 113.881 53.5269 113.96 53.3718C114.445 52.4301 115.842 51.461 116.975 52.1301C118.25 52.8845 117.094 54.3096 116.367 54.9547C116.069 55.2192 114.595 56.1885 114.076 56.1928C115.79 58.145 117.682 60.0637 119.606 61.9132C119.447 61.0852 119.239 58.8053 119.262 58.5523C119.381 57.246 120.324 55.1567 122.181 55.666C123.983 56.159 123.186 58.3292 122.569 59.3639C122.195 59.9901 121.679 60.6263 121.056 61.063C120.944 61.1417 120.797 61.206 120.651 61.2701C120.474 61.3473 120.298 61.4245 120.183 61.5268C120.08 61.6178 120.049 61.7224 120.017 61.826C119.984 61.9354 119.952 62.0438 119.836 62.1346C120.876 63.1297 121.923 64.104 122.955 65.0514C123.442 65.4984 123.938 65.9369 124.438 66.3698C124.712 66.2664 125.103 66.4025 125.082 66.7559C125.08 66.8071 125.067 66.8514 125.049 66.8919C125.428 67.2134 125.81 67.5327 126.195 67.8484C126.186 67.7564 126.189 67.6265 126.207 67.4476C125.93 67.8064 125.941 67.2837 125.95 66.885C125.953 66.7442 125.956 66.6191 125.945 66.5536C125.905 66.2974 125.852 66.0439 125.799 65.7906C125.687 65.2497 125.575 64.7107 125.581 64.1524C125.593 62.9674 126.417 60.9811 128.151 61.6869C129.745 62.3343 129.165 64.0904 128.564 65.1915C128.183 65.8883 127.662 66.5104 127.117 67.1059C127.02 67.2122 126.912 67.3561 126.806 67.4988C126.647 67.7104 126.491 67.9187 126.376 67.9964C127.856 69.2049 129.371 70.378 130.887 71.5511L130.887 71.5518C131.566 72.0769 132.245 72.6024 132.92 73.1309C132.949 73.0148 132.974 72.8997 132.994 72.7923C132.952 72.8356 132.895 72.8559 132.821 72.8518C132.801 72.763 132.773 72.6448 132.739 72.5028C132.322 70.77 131.051 65.4918 134.492 66.5147C137.013 67.2663 135.233 71.8622 133.353 73.4699C134.494 74.3675 135.624 75.2768 136.728 76.2131C137.527 76.8905 138.302 77.591 139.048 78.3152C138.662 77.3775 138.299 76.164 138.537 75.1982C138.885 73.7926 140.513 72.4656 142.102 73.2653C144.083 74.2665 142.559 75.6343 141.13 76.9167C140.4 77.5715 139.695 78.2041 139.494 78.7543C141.864 81.1293 143.888 83.7678 145.24 86.7733C146.711 90.0418 148.076 94.4336 147.321 98.0902C147.46 96.4823 146.864 94.4636 146.445 93.0456C146.388 92.8526 146.334 92.6707 146.286 92.5025C145.657 90.3034 144.763 88.1639 143.586 86.1613C141.699 82.9538 139.207 80.2312 136.329 77.7593C135.674 77.9673 134.963 78.3523 134.373 78.6712C134.012 78.8668 133.696 79.0376 133.468 79.1272C132.367 79.56 130.254 80.1802 129.552 78.8172C128.863 77.4771 130.623 76.7275 131.714 76.427C132.768 76.1373 133.718 76.1723 134.702 76.4099C133.179 75.1796 131.619 73.9884 130.059 72.7975L130.059 72.7973C129.772 72.578 129.485 72.3591 129.198 72.1398C128.802 72.436 128.364 72.8642 127.899 73.3189C126.423 74.7617 124.675 76.4711 123.114 75.0745C120.757 72.9669 125.264 70.8248 127.184 70.992C127.42 71.0125 127.648 71.0578 127.87 71.1193C125.912 69.605 123.984 68.0593 122.161 66.4049C121.834 66.4594 121.313 66.8979 120.688 67.425C119.281 68.6092 117.346 70.2395 115.888 68.9559C114.835 68.0292 115.195 66.586 116.213 65.7608C117.234 64.932 118.715 64.9335 119.974 65.2125C120.518 65.3326 121.02 65.5618 121.488 65.8411C121.508 65.842 121.527 65.843 121.546 65.8439C119.752 64.1988 117.947 62.5168 116.209 60.7773C116.178 60.7862 116.147 60.7955 116.116 60.8048C116.011 60.922 115.835 60.9649 115.674 60.9389C115.585 60.9668 115.494 60.9954 115.401 61.0245C114.024 61.4574 112.255 62.014 110.882 61.7741C109.872 61.5973 108.955 60.8491 109.811 59.9279C110.505 59.1787 112.391 59.2862 113.311 59.4637C113.76 59.5504 114.249 59.8016 114.739 60.0537C114.945 60.1595 115.151 60.2655 115.355 60.3596C115.408 60.2624 115.5 60.2 115.605 60.17C113.889 58.4219 112.251 56.6136 110.765 54.7266C110.315 54.79 109.817 54.9702 109.302 55.1558C108.064 55.6026 106.736 56.082 105.782 55.0493C104.375 53.5247 107.022 52.6348 108.28 52.7796C108.705 52.8285 109.124 52.9381 109.529 53.0832C108.448 51.5296 107.622 49.869 107.042 48.1248C107.036 48.1274 107.031 48.13 107.026 48.1327V48.1329C107.018 48.1369 107.009 48.1412 106.999 48.1453C107.008 48.1408 107.016 48.1365 107.024 48.1319C107.029 48.1286 107.035 48.1253 107.041 48.1219C106.983 47.9475 106.927 47.7724 106.875 47.5963C106.776 47.5465 106.684 47.5098 106.64 47.4948C107.212 47.8539 104.8 48.0297 104.349 48.0626C103.35 48.1353 102.012 48.1624 101.279 47.4169C100.664 46.7906 100.7 45.8656 101.453 45.3416ZM147.428 98.0955C147.385 98.6252 147.28 99.1106 147.084 99.5106C147.231 99.055 147.344 98.5816 147.428 98.0955Z" fill="#F58B3D"/>
<path opacity="0.2" fill-rule="evenodd" clip-rule="evenodd" d="M56.1111 11.4996C55.4484 11.0432 54.4199 11.3348 53.7522 11.6047C53.4951 11.7088 52.8376 12.0416 52.3501 12.416C52.4147 12.1566 52.4723 11.8949 52.5226 11.6311C52.7295 10.5463 52.8719 9.44098 52.941 8.34212C52.9588 8.05551 52.9358 7.73531 52.9125 7.41091V7.41065C52.9046 7.30082 52.8968 7.19052 52.8905 7.08087C52.9172 7.05494 52.9353 7.01913 52.9429 6.97064C52.9455 6.99075 52.9471 7.00688 52.9484 7.0192C52.9505 7.03917 52.9512 7.04917 52.9549 7.04998C52.9583 7.05082 52.9646 7.04234 52.9769 7.02532C52.9816 7.01872 52.9874 7.01083 52.9942 7.00171C53.4877 6.33645 53.9025 5.58688 53.9598 4.76309C54.0083 4.06442 53.3725 2.74284 52.4695 3.65834C52.0654 4.06721 52.1686 6.93735 52.775 7.11299C52.6124 8.06411 52.4082 9.01369 52.1526 9.95122C52.1144 9.94514 52.0754 9.94462 52.0369 9.94938C52.0406 9.71634 52.0411 9.46202 52.0306 9.37457C51.94 8.62131 51.243 7.09226 50.132 7.3897C49.2782 7.61831 49.8008 8.55743 50.0912 8.96844C50.5583 9.63018 51.0872 9.91657 51.757 10.2605C51.7703 10.4027 51.8722 10.4854 51.9921 10.5122C51.5428 12.0263 50.9526 13.5031 50.1805 14.8981L50.16 14.8095C50.0621 14.3862 49.9482 13.8927 49.8759 13.789C49.4984 13.2467 48.6618 12.5844 47.8899 12.9058C46.2686 13.5816 48.0268 15.5213 49.4067 15.7317C49.4641 15.8032 49.5246 15.8607 49.5892 15.8936C49.3209 16.3147 49.0341 16.7271 48.7273 17.1288C48.267 17.7331 47.7726 18.3355 47.2542 18.9343C47.2384 18.4661 47.034 17.4226 46.9758 17.3105C46.6223 16.6297 45.603 15.9295 44.7753 16.4136C43.8442 16.9595 44.6876 17.9897 45.2181 18.4559C45.4354 18.6471 46.5111 19.3474 46.8907 19.3504C45.6381 20.7627 44.2556 22.1507 42.85 23.4886C42.9668 22.8898 43.1197 21.2412 43.103 21.0582C43.0163 20.1137 42.3287 18.6033 40.9727 18.9721C39.6567 19.3293 40.2379 20.8983 40.6878 21.6462C40.9604 22.099 41.3371 22.5589 41.792 22.8743C41.8739 22.9313 41.981 22.9775 42.0878 23.024C42.2167 23.0797 42.3452 23.1355 42.4293 23.2094C42.5042 23.2751 42.5272 23.3507 42.5497 23.4257C42.5738 23.5048 42.5976 23.5832 42.6822 23.6488C41.9226 24.3686 41.1578 25.0737 40.4039 25.759C40.0481 26.0823 39.686 26.3997 39.3202 26.7128C39.1202 26.6383 38.835 26.7367 38.8497 26.9921C38.8518 27.0293 38.8615 27.0612 38.874 27.0905C38.597 27.3231 38.3181 27.554 38.0369 27.7825C38.0435 27.716 38.0416 27.6221 38.0288 27.4927C38.231 27.7522 38.2226 27.3741 38.2163 27.086C38.2142 26.984 38.2121 26.8935 38.2197 26.8463C38.2495 26.6609 38.2883 26.4777 38.3268 26.2944C38.409 25.9034 38.491 25.5133 38.487 25.1097C38.4787 24.253 37.878 22.8169 36.6115 23.3278C35.4471 23.7965 35.87 25.0663 36.3088 25.8622C36.5863 26.3659 36.9665 26.8155 37.364 27.2461C37.4347 27.3228 37.5135 27.427 37.5913 27.5299C37.7068 27.6829 37.8207 27.8335 37.905 27.8897C36.8236 28.764 35.717 29.6127 34.6103 30.4615H34.61L34.6097 30.4617C34.1138 30.842 33.6181 31.2221 33.1246 31.6045C33.1034 31.5207 33.0856 31.4375 33.0704 31.3596C33.1013 31.391 33.1432 31.4058 33.1971 31.403C33.2115 31.3386 33.2322 31.2531 33.2573 31.1504C33.5626 29.8972 34.4927 26.08 31.9798 26.821C30.1386 27.3653 31.436 30.6881 32.8083 31.85C31.9749 32.4993 31.149 33.1572 30.3428 33.8346C29.7592 34.3245 29.1931 34.8316 28.6482 35.3554C28.9305 34.6772 29.1962 33.7996 29.0224 33.1012C28.7694 32.0852 27.5812 31.1261 26.4205 31.7049C24.9733 32.4297 26.0858 33.4179 27.129 34.3448C27.6616 34.818 28.1761 35.2753 28.3227 35.6732C26.5912 37.3912 25.1123 39.2999 24.1239 41.4735C23.0488 43.8375 22.0501 47.0136 22.6 49.6575C22.4989 48.495 22.9349 47.0348 23.2412 46.0094C23.2831 45.8698 23.3224 45.7383 23.3575 45.6165C23.8178 44.0262 24.4714 42.4788 25.332 41.0305C26.7109 38.7106 28.5317 36.741 30.6335 34.9524C31.1116 35.1025 31.6311 35.3808 32.0613 35.6113C32.3249 35.7526 32.5553 35.876 32.7219 35.9408C33.5255 36.2534 35.0685 36.7012 35.5811 35.7154C36.0852 34.7458 34.8003 34.2044 34.0041 33.9876C33.2346 33.7784 32.5407 33.8041 31.8225 33.9762C32.935 33.0862 34.0745 32.2241 35.2138 31.3624C35.4235 31.204 35.633 31.0455 35.8422 30.8868C36.1318 31.1008 36.4512 31.4103 36.7906 31.7389C37.8675 32.7817 39.1432 34.0172 40.2838 33.0066C42.0051 31.4818 38.7156 29.9344 37.3137 30.0562C37.1414 30.071 36.9749 30.1038 36.8126 30.1484C38.243 29.0525 39.6509 27.9343 40.9829 26.7374C41.2217 26.7767 41.6019 27.0936 42.0582 27.4744H42.0585C43.0847 28.3303 44.4973 29.5086 45.5624 28.5798C46.3312 27.9095 46.0688 26.8661 45.3262 26.2696C44.5808 25.6706 43.4997 25.6723 42.5803 25.8746C42.1831 25.9615 41.8166 26.1274 41.4749 26.3294C41.4602 26.3302 41.4463 26.3309 41.4324 26.3316C42.743 25.1414 44.0613 23.9245 45.3315 22.6661C45.3535 22.6725 45.3763 22.6792 45.399 22.6859C45.4758 22.7707 45.6043 22.8017 45.7219 22.7828C45.7863 22.8026 45.852 22.8231 45.919 22.8441L45.9206 22.8446C46.9258 23.1572 48.218 23.5592 49.22 23.385C49.9576 23.257 50.6272 22.7157 50.0032 22.0497C49.496 21.5083 48.119 21.5867 47.4474 21.7153C47.1196 21.7782 46.7627 21.9601 46.4048 22.1423C46.2542 22.2191 46.1036 22.2958 45.9547 22.3639C45.9162 22.2937 45.8489 22.2484 45.7722 22.2267C47.0261 20.9621 48.223 19.6541 49.3085 18.2891C49.6366 18.3348 50.0008 18.4648 50.3763 18.5989C51.2799 18.9215 52.2498 19.2677 52.9463 18.5208C53.9745 17.4178 52.0421 16.7752 51.1233 16.8803C50.8131 16.9158 50.507 16.9953 50.2116 17.1002C51.0016 15.9765 51.6051 14.7754 52.0296 13.5141C52.0335 13.516 52.0374 13.5179 52.0411 13.5198C52.0471 13.5229 52.0531 13.5259 52.0605 13.5288C52.0539 13.5257 52.0484 13.5224 52.0429 13.5192C52.0387 13.5168 52.0345 13.5144 52.0301 13.512C52.0725 13.3859 52.1131 13.2591 52.1518 13.1319C52.2236 13.0958 52.2906 13.0692 52.3228 13.0583C51.9052 13.3182 53.6663 13.4445 53.996 13.4681C54.7252 13.5203 55.7019 13.5395 56.2373 13.0002C56.6866 12.5472 56.6607 11.8783 56.1111 11.4996ZM22.4908 49.5532C22.523 49.9063 22.6186 50.2285 22.8071 50.4925C22.6689 50.1908 22.5652 49.8765 22.4908 49.5532Z" fill="#F1F447"/>
<g opacity="0.7">
<path opacity="0.7" fill-rule="evenodd" clip-rule="evenodd" d="M127.731 73.7965C131.305 73.6278 135.726 75.5267 136.108 79.0628C136.385 81.6319 136.299 84.1939 136.728 86.7595C137.07 88.8097 137.795 90.7779 138.784 92.6456C139.735 94.4415 141.708 95.9703 142.221 97.889C142.548 99.1116 142.365 100.831 141.914 102.027C141.366 103.481 141.657 103.366 142.75 104.586C144.891 106.977 146.819 109.429 148.182 112.284C150.146 116.397 151.434 121.204 150.705 125.706C150.612 126.277 150.502 128.329 149.637 128.473C148.671 128.633 149.123 127.46 149.174 127.081C149.503 124.662 149.795 122.548 149.399 120.092C147.869 110.615 140.398 104.372 135.534 96.3287C135.266 95.9139 134.702 94.9262 134.309 94.2747C133.69 93.2458 133.067 91.2886 132.228 90.5256C130.648 89.0887 132.1 91.9777 132.408 92.5291C132.797 93.2268 133.226 93.9683 133.625 94.5795C135.45 97.4131 137.487 100.506 139.371 103.427C131.22 105.117 125.479 96.1986 123.291 90.3352C121.488 85.5045 119.332 74.2099 127.731 73.7965Z" fill="#B45661"/>
<path opacity="0.7" fill-rule="evenodd" clip-rule="evenodd" d="M175.643 64.8255C169.667 65.257 165.83 68.8456 164.045 73.8647C163.082 76.5695 162.972 79.3481 162.437 82.1279C161.632 86.3098 159.901 89.4792 156.518 92.4586C155.47 93.3813 154.697 94.3287 154.149 95.3423C153.059 96.3543 152.11 97.4995 151.413 98.8997C150.523 100.688 150.271 102.833 151.299 104.616C151.575 105.095 152.265 106.057 152.979 106.494C150.304 111.679 148.833 117.358 148.999 123.03C149.099 126.453 149.283 129.878 149.497 133.297C149.555 134.215 149.883 135.732 150.376 134.192C150.828 132.783 150.262 130.572 150.209 129.101C149.954 121.933 149.737 115.416 152.979 108.72C153.319 108.018 153.679 107.321 154.055 106.631C154.077 106.619 154.097 106.605 154.118 106.591C154.132 106.601 154.145 106.612 154.16 106.622C154.183 106.583 154.216 106.537 154.255 106.485C154.362 106.384 154.456 106.256 154.546 106.114C154.833 105.751 155.159 105.325 155.161 105.091C155.161 105.09 155.159 105.087 155.159 105.085C157.166 102.103 159.465 99.2862 161.814 96.5237C161.796 96.544 164.361 93.366 163.964 95.1234C163.773 95.9705 161.887 97.5831 161.125 98.4803C159.439 100.476 157.46 103.005 155.815 105.45C155.594 105.566 155.282 106.134 155.055 106.557C154.93 106.772 154.814 106.988 154.699 107.176C160.527 108.928 165.06 105.399 168.152 101.294C168.155 101.289 168.159 101.284 168.162 101.279C169.103 100.145 170.066 99.0186 171.27 98.1219C173.279 96.6255 175.43 96.3615 177.798 95.6252C184.256 93.6172 187.001 86.0007 187.873 80.3494C188.857 73.9736 184.045 64.1969 175.643 64.8255Z" fill="#E7502F"/>
<path opacity="0.7" fill-rule="evenodd" clip-rule="evenodd" d="M163.838 46.9709C157.705 52.7798 154.742 60.8371 152.396 68.4118C149.775 76.8718 148.044 85.4624 147.978 94.2583C147.934 100.037 147.762 105.852 148.132 111.625C148.264 113.675 148.488 115.728 148.845 117.756C148.875 117.923 149.674 122.451 150.438 121.396C150.873 120.796 149.619 116.699 149.525 116.016C148.992 112.172 148.868 108.301 148.894 104.429C148.936 98.0549 148.73 91.7135 149.44 85.3628C149.546 84.4144 149.63 83.4186 149.877 82.491C150.14 81.5047 149.805 81.9353 150.661 81.5448C151.493 81.1654 152.52 81.2195 153.383 80.7434C156.806 78.8546 158.557 74.0027 159.92 70.8192C161.479 67.179 162.426 63.2969 163.183 59.4658C163.738 56.6512 164.136 53.8535 164.36 51.0024C164.431 50.1039 164.435 49.1643 164.629 48.2808C164.682 48.0425 164.944 47.621 164.934 47.4099C164.914 46.9631 164.618 46.7005 164.594 46.3252C164.337 46.5354 164.085 46.7508 163.838 46.9709Z" fill="#E7502F"/>
<path opacity="0.7" fill-rule="evenodd" clip-rule="evenodd" d="M130.396 124.367C130.396 133.974 138.953 141.762 149.51 141.762C160.066 141.762 168.624 133.974 168.624 124.367" fill="#E7502F"/>
<path opacity="0.7" fill-rule="evenodd" clip-rule="evenodd" d="M162.609 109.137C167.34 108.82 172.623 112.293 174.904 115.907C176.744 118.821 176.434 122.648 175.298 125.744C174.537 127.817 172.877 130.772 170.107 130.801C166.643 130.837 166.476 126.94 166.409 124.662C166.32 121.633 165.899 118.995 163.276 116.93C162.953 116.675 162.613 116.437 162.273 116.198C161.972 115.987 161.67 115.775 161.38 115.552C161.334 115.516 161.287 115.481 161.24 115.445C160.313 114.736 159.339 113.991 159.22 112.821C159.049 111.127 160.099 110.822 161.704 111.137C161.756 111.147 161.896 111.196 162.087 111.262C162.907 111.544 164.656 112.148 164.325 111.427C164.2 111.155 163.745 110.94 163.171 110.778C161.686 110.631 159.913 110.461 159.404 110.563C153.907 111.66 151.766 118.59 151.198 122.993C151.136 123.468 151.087 123.945 151.043 124.423H150.033C150.104 123.269 150.196 122.118 150.408 120.978C151.218 116.617 153.752 110.211 159.308 109.503C159.513 109.477 160.267 109.472 161.18 109.521C161.613 109.301 162.098 109.168 162.609 109.137Z" fill="#B45661"/>
</g>
<g opacity="0.5">
<path opacity="0.5" fill-rule="evenodd" clip-rule="evenodd" d="M46.6657 42.0274C47.7659 40.5996 49.808 36.9734 51.3565 36.4632C52.3541 36.1346 52.0632 39.5337 52.0755 40.1819C52.1234 42.6896 51.8553 45.1813 51.5241 47.6677C50.9271 52.1525 48.9756 56.1461 46.2988 59.9629C44.9215 61.9268 43.3057 63.9148 41.0681 65.14C40.0383 65.7045 38.799 65.7989 37.7817 66.2852C36.5969 66.8512 37.2421 66.3937 36.7082 67.5169C35.9669 69.0767 35.7297 71.089 35.3867 72.7532C33.8117 80.3932 29.9983 120.78 30.6595 128.551C30.7181 129.24 29.6629 129.404 29.61 128.563C29.3301 124.105 31.7532 93.2288 32.976 83.1316C34.1985 73.0341 35.4357 64.1135 36.676 60.6203C38.181 56.382 40.8989 51.2854 43.1615 47.333C44.2125 45.497 45.358 43.7239 46.6657 42.0274Z" fill="#B45661"/>
<path opacity="0.5" fill-rule="evenodd" clip-rule="evenodd" d="M54.8326 91.5503C57.6958 89.6374 60.7952 93.2476 58.204 95.1608C56.7718 96.2183 55.2743 95.8423 54.4315 94.9609C53.8842 95.568 53.3721 96.2028 52.8798 96.7387C51.3803 98.3726 49.9632 100.045 48.6087 101.757C45.795 105.313 43.3837 109.07 40.8625 112.757C38.3745 116.397 35.9064 120.056 33.6512 123.788C31.7408 126.95 29.1944 130.67 28.5404 134.137C29.5327 126.785 33.2985 119.718 37.7827 113.237C42.2306 106.809 47.3349 99.7889 54.2217 94.7161C53.5208 93.778 53.5014 92.4391 54.8326 91.5503Z" fill="#F1F447"/>
<path opacity="0.5" fill-rule="evenodd" clip-rule="evenodd" d="M0.50095 73.6204C2.10319 73.9054 4.72126 77.2039 6.042 78.4606C7.61161 79.9542 9.03562 81.5459 10.3779 83.2139C13.2676 86.8038 15.852 90.6206 18.0495 94.6009C21.632 101.09 24.5023 107.751 26.5852 114.816C27.8604 119.141 28.686 123.624 29.1751 128.076C29.2675 128.916 30.2347 135.388 28.841 135.563C27.5875 135.72 27.9748 130.648 27.9143 129.958C27.2307 122.174 25.1828 114.601 22.3345 107.265C21.714 105.667 21.1377 103.709 20.1453 102.271C19.4308 101.235 20.1402 101.596 18.8845 101.204C17.8063 100.867 16.5778 100.95 15.4737 100.537C13.0751 99.6423 11.1545 97.9045 9.47093 96.1564C6.19923 92.7592 3.60656 89.0842 2.25511 84.7312C1.50544 82.3179 0.816517 79.8903 0.434207 77.4022C0.335311 76.759 -0.53106 73.4367 0.50095 73.6204Z" fill="#B45661"/>
<path opacity="0.5" fill-rule="evenodd" clip-rule="evenodd" d="M6.82385 18.7402C12.8592 28.2653 17.8188 38.7285 21.0211 49.3261C22.9616 55.7471 24.3185 62.3361 25.6667 68.8772C27.7541 79.0057 29.7286 89.1331 30.2902 99.4415C30.8553 109.809 31.9725 121.768 28.2421 131.754C30.1056 121.615 28.3314 110.824 28.0172 100.622C27.8672 95.7522 27.4323 90.9298 26.8614 86.0881C26.3077 81.3916 25.403 76.7174 24.5607 72.0578C24.1504 69.7884 23.7194 67.5226 23.2805 65.2579C23.1494 64.5822 23.0941 62.5773 22.6231 62.1157C22.1491 61.6511 19.7306 61.4616 18.9713 61.1207C17.4423 60.4342 16.0041 59.4589 14.7312 58.4283C12.2911 56.4527 10.1684 53.8714 8.49294 51.3268C4.61638 45.4393 3.06653 38.2541 3.14487 31.4354C3.1599 30.1115 5.49948 15.8556 4.55987 15.6592C4.61645 15.5989 4.66995 15.5367 4.7204 15.4719C5.43176 16.5558 6.12983 17.6471 6.82385 18.7402Z" fill="#E7502F"/>
<path opacity="0.5" fill-rule="evenodd" clip-rule="evenodd" d="M71.9651 53.0936C72.0584 52.9714 72.6645 52.1214 72.3592 52.1758C72.9806 52.065 71.5046 53.1132 73.0528 52.47C72.3176 53.102 72.742 53.9226 72.7517 54.773C72.7677 56.1539 72.514 57.5231 72.2283 58.8741C71.7766 61.0099 71.104 63.0862 70.1276 65.0726C67.9996 69.4014 64.3862 73.5685 60.0965 76.2749C57.9788 77.611 55.9035 78.0661 53.4883 78.6811C51.9625 79.0698 51.8416 79.7879 51.0317 81.1352C49.346 83.9412 47.6901 86.737 46.2031 89.6376C44.4279 93.1015 42.7045 96.569 41.0787 100.094C35.6018 111.966 31.1443 124.266 28.8035 136.996C28.7461 129.495 30.6531 121.769 33.0583 114.618C34.8106 109.409 37.0914 104.387 39.5244 99.4165C40.1138 98.2122 41.0072 96.6631 41.2578 95.3335C41.433 94.4018 40.897 93.5061 40.6516 92.5246C39.6949 88.7033 39.7635 84.4221 40.6035 80.5802C41.5298 76.3438 44.2085 74.3775 48.7398 73.7775C50.397 73.5578 52.5035 73.6383 54.0229 72.9952C55.6785 72.2951 56.3614 69.9933 57.303 68.516C59.8316 64.5469 62.8359 60.7406 66.2856 57.3965C67.2408 56.4706 68.268 55.6161 69.3578 54.8243C70.0451 54.3246 71.497 53.7091 71.9651 53.0936Z" fill="#E7502F"/>
<path opacity="0.5" fill-rule="evenodd" clip-rule="evenodd" d="M19.8591 130.259C19.7425 129.54 20.3552 128.894 21.1542 128.894H37.2358C38.0346 128.894 38.6473 129.54 38.5308 130.259L37.2879 137.929C36.909 140.268 34.7043 142 32.1071 142H26.2828C23.6856 142 21.481 140.268 21.1021 137.929L19.8591 130.259Z" fill="#F1F447"/>
</g>
<path fill-rule="evenodd" clip-rule="evenodd" d="M6.65538 132.816C6.65538 137.888 7.09524 142 12.9992 142C18.9031 142 19.3429 137.888 19.3429 132.816" fill="#F58B3D"/>
<path fill-rule="evenodd" clip-rule="evenodd" d="M14.7556 129.651C14.5392 129.991 14.3462 130.339 14.1758 130.691C14.1697 129.965 14.2139 129.234 14.3343 128.493C14.5402 127.222 14.8548 125.959 15.1503 124.698C15.3627 123.791 15.3493 122.164 16.1554 121.441C16.3764 121.285 16.4296 121.591 16.4296 121.724C16.4324 121.752 16.429 121.182 16.2145 121.281C14.9391 121.88 14.5259 123.765 14.1176 124.709C13.5219 126.086 13.0151 127.494 12.8064 128.927C12.7536 129.289 12.7249 129.651 12.7183 130.013C12.6749 129.916 12.6342 129.819 12.5892 129.722C11.8531 128.151 10.8598 126.618 9.62085 125.204C9.31589 124.857 5.48148 121.424 5.18131 121.95C5.21092 122.026 5.27292 122.089 5.36747 122.139C5.37302 122.145 5.37318 122.142 5.36996 122.133C5.59514 122.465 6.23544 122.976 6.43488 123.266C6.9368 123.996 7.32689 124.771 7.72331 125.53C8.56085 127.136 9.33781 128.758 10.091 130.384C10.2664 130.762 10.4492 131.139 10.6356 131.514C8.71327 128.991 6.14875 126.7 2.61848 125.389C3.82422 125.947 4.61474 126.997 5.42903 127.801C6.41111 128.771 7.4455 129.715 8.42944 130.684C9.59001 131.827 10.9555 133.031 12.0718 134.295C13.1531 136.361 14.2038 138.429 14.8525 140.601C14.5867 139.851 14.8316 138.814 14.7861 138.026C14.75 137.4 14.6695 136.778 14.5592 136.157C14.6956 136.437 14.8131 136.717 14.8663 136.978C14.8177 136.541 14.7618 136.107 14.7016 135.675C14.856 135.27 15.0076 134.893 15.1101 134.582C15.6349 132.988 16.2599 131.421 17.1111 129.894C17.8987 128.481 18.8021 127.086 19.7865 125.734C20.2457 125.103 20.7113 124.475 21.1739 123.846C21.4766 123.434 21.7649 122.774 22.1864 122.38C19.4615 124.647 16.4844 126.93 14.7556 129.651Z" fill="#F58B3D"/>
<path fill-rule="evenodd" clip-rule="evenodd" d="M180.049 26.1535C179.268 23.7823 177.434 21.9264 175.53 20.226C171.824 16.9156 169.83 14.8688 168.509 10.0262C167.732 7.17819 166.942 4.16018 164.478 2.09391C162.684 0.589206 159.596 -0.675002 157.197 0.402464C153.506 2.40737 152.514 6.52177 152.887 10.206C153.348 14.7723 155.692 17.5879 160.195 19.2697C162.732 20.217 164.418 21.4669 165.796 23.6448C166.897 25.3862 167.539 27.567 168.924 29.1456C170.994 31.5058 173.583 32.5547 176.776 32.1627C173.786 27.1562 170.292 22.1024 166.078 17.887C165.684 17.4633 163.357 15.8411 163.826 15.1189C164.343 14.3236 166.732 17.311 166.715 17.2929C167.939 18.5721 169.073 19.9315 170.185 21.304C170.183 21.3052 170.179 21.3061 170.176 21.3073C171.322 22.7158 172.458 24.1448 173.573 25.5916C174.024 26.2038 174.463 26.8235 174.883 27.459C175.499 28.3914 176.478 31.0378 177.487 31.6111C177.703 31.7336 177.902 31.8022 178.089 31.8303C178.777 32.8561 179.447 33.89 180.084 34.9361C181.747 37.6682 183.175 40.5529 183.83 43.6375C184.022 44.5379 183.886 47.9056 184.562 48.5556C185.797 49.7444 185.435 47.455 185.361 46.764C184.748 41.0421 182.49 36.1673 179.213 31.3569C180.22 30.1602 180.365 27.1142 180.049 26.1535Z" fill="#F58B3D"/>
<path fill-rule="evenodd" clip-rule="evenodd" d="M137.761 28.9183C139.063 27.5227 142.192 27.2859 144.106 27.3793C146.473 27.4948 148.906 28.0195 151.159 28.6538C154.87 29.6985 158.476 31.6052 161.745 33.4507C162.138 33.673 166.991 36.3287 166.562 36.7948C166.136 37.2566 161.372 34.1019 160.31 33.5582C158.045 32.3977 155.967 31.0252 153.47 30.2587C150.884 29.465 148.149 29.1507 145.43 29.1723C145.081 29.1752 143.943 28.9538 143.918 29.4237C143.894 29.8831 145.778 29.6434 146.11 29.6463C147.482 29.6577 148.862 29.7752 150.214 29.9916C152.748 30.3969 155.13 31.2132 157.3 32.4656C156.694 33.7469 155.243 34.3376 153.72 34.0169C152.404 33.7397 151.122 33.0561 149.833 32.8586C148.945 32.7225 148.057 32.8035 147.196 33.0311C144.926 33.6313 143.617 34.8613 141.121 34.0057C139.164 33.3351 135.892 30.9254 137.761 28.9183Z" fill="#F58B3D"/>
<path fill-rule="evenodd" clip-rule="evenodd" d="M132.163 6.42945C129.273 6.23761 126.046 8.33676 124.652 10.5212C123.528 12.2825 123.717 14.5952 124.411 16.4664C124.876 17.7191 125.891 19.5052 127.583 19.5226C129.699 19.5444 129.801 17.1892 129.842 15.8123C129.896 13.9818 130.154 12.3872 131.756 11.1394C131.953 10.9855 132.161 10.8413 132.369 10.6971C132.553 10.5691 132.737 10.4412 132.914 10.3064C132.943 10.2849 132.971 10.2633 133 10.2417C133.566 9.81299 134.161 9.36276 134.234 8.65615C134.339 7.63213 133.697 7.44785 132.716 7.63809C132.685 7.64422 132.599 7.67355 132.482 7.71341C131.981 7.88424 130.913 8.24879 131.115 7.81301C131.191 7.64881 131.469 7.51869 131.82 7.42121C132.728 7.33235 133.81 7.22925 134.122 7.29084C137.48 7.9542 138.788 12.1426 139.135 14.8037C139.175 15.1051 139.206 15.4074 139.233 15.7102H139.849C139.806 14.9991 139.75 14.2891 139.618 13.5858C139.123 10.9499 137.575 7.07844 134.18 6.6506C134.055 6.63466 133.594 6.63197 133.036 6.66144C132.772 6.52839 132.476 6.44794 132.163 6.42945Z" fill="#F58B3D"/>
</svg>
