<svg aria-hidden="true" style="position: absolute; width: 0; height: 0; overflow: hidden;" version="1.1" xmlns="http://www.w3.org/2000/svg" xmlns:xlink="http://www.w3.org/1999/xlink">
<defs>
<symbol id="logo" viewBox="0 0 46 36">
<path d="M18.2716 35.0369V29.5061L18.0247 28.469V19.0369C18.0247 17.0287 17.4321 15.4814 16.2469 14.395C15.0947 13.2756 13.3498 12.716 11.0123 12.716C9.46502 12.716 7.95062 12.9793 6.46914 13.5061C4.98765 13.9999 3.73663 14.6748 2.71605 15.5308L0.740741 11.9752C2.09054 10.8888 3.7037 10.0657 5.58025 9.50608C7.48971 8.91348 9.48148 8.61719 11.5556 8.61719C15.144 8.61719 17.9095 9.48962 19.8519 11.2345C21.7942 12.9793 22.7654 15.646 22.7654 19.2345V35.0369H18.2716ZM9.67901 35.3332C7.73663 35.3332 6.02469 35.004 4.54321 34.3456C3.09465 33.6872 1.97531 32.7818 1.18519 31.6295C0.395062 30.4444 0 29.111 0 27.6295C0 26.2139 0.329218 24.9299 0.987654 23.7777C1.67901 22.6254 2.78189 21.7036 4.2963 21.0123C5.84362 20.3209 7.9177 19.9752 10.5185 19.9752H18.8148V23.3826H10.7161C8.34568 23.3826 6.74897 23.7777 5.92593 24.5678C5.10288 25.3579 4.69136 26.3127 4.69136 27.432C4.69136 28.716 5.20165 29.753 6.22222 30.5431C7.2428 31.3003 8.65844 31.6789 10.4691 31.6789C12.2469 31.6789 13.7942 31.2839 15.1111 30.4937C16.4609 29.7036 17.4321 28.5513 18.0247 27.0369L18.963 30.2962C18.3375 31.8435 17.2346 33.0781 15.6543 33.9999C14.0741 34.8888 12.0823 35.3332 9.67901 35.3332Z"></path>
<path d="M33.4325 35.3332C30.6341 35.3332 28.165 34.7571 26.0251 33.6048C23.9181 32.4526 22.272 30.8723 21.0868 28.8641C19.9345 26.8559 19.3584 24.5513 19.3584 21.9505C19.3584 19.3497 19.9181 17.0452 21.0374 15.0369C22.1897 13.0287 23.7535 11.4649 25.7288 10.3456C27.737 9.19332 29.9921 8.61719 32.4942 8.61719C35.0292 8.61719 37.2679 9.17686 39.2103 10.2962C41.1526 11.4155 42.667 12.9958 43.7535 15.0369C44.8728 17.0452 45.4325 19.3991 45.4325 22.0987C45.4325 22.2962 45.416 22.5267 45.3831 22.79C45.3831 23.0534 45.3666 23.3003 45.3337 23.5308H23.0621V20.1234H42.8646L40.9387 21.3085C40.9716 19.6295 40.6259 18.1316 39.9016 16.8147C39.1773 15.4978 38.1732 14.4773 36.8893 13.753C35.6382 12.9958 34.1732 12.6172 32.4942 12.6172C30.8481 12.6172 29.3831 12.9958 28.0991 13.753C26.8152 14.4773 25.8111 15.5143 25.0868 16.8641C24.3625 18.181 24.0004 19.6954 24.0004 21.4073V22.1974C24.0004 23.9423 24.3954 25.5061 25.1856 26.8888C26.0086 28.2386 27.1444 29.2921 28.593 30.0493C30.0415 30.8065 31.7041 31.1851 33.5806 31.1851C35.1279 31.1851 36.5271 30.9217 37.7782 30.395C39.0621 29.8682 40.1814 29.0781 41.1362 28.0246L43.7535 31.0863C42.5683 32.469 41.0868 33.5225 39.309 34.2468C37.5642 34.9711 35.6053 35.3332 33.4325 35.3332Z"></path>
<path d="M41.9754 3.7037H24.6914V0H41.9754V3.7037Z"></path>
</symbol>
<symbol id="phone" viewBox="0 0 20 20">
<path d="M19.1276 3.1671L16.4651 0.507437C16.1401 0.182477 15.7051 0 15.2451 0C14.7851 0 14.3501 0.179978 14.0251 0.507437L11.1575 3.36958C10.8325 3.69454 10.65 4.13198 10.65 4.59193C10.65 5.05437 10.83 5.48681 11.1575 5.81427L13.3976 8.05649C12.8873 9.24531 12.1541 10.3255 11.2375 11.2386C10.32 12.161 9.24754 12.8884 8.05753 13.4033L5.81753 11.1611C5.49252 10.8361 5.05752 10.6537 4.59752 10.6537C4.37063 10.6528 4.14585 10.6973 3.93636 10.7844C3.72686 10.8715 3.53687 10.9996 3.37751 11.1611L0.507502 14.0232C0.182501 14.3482 0 14.7857 0 15.2456C0 15.708 0.180001 16.1405 0.507502 16.4679L3.16751 19.1276C3.72252 19.6825 4.48752 20 5.27252 20C5.43502 20 5.59252 19.9875 5.75253 19.96C9.06254 19.4151 12.3476 17.6528 15.0001 15.0031C17.6501 12.3485 19.4101 9.06387 19.9601 5.75178C20.1176 4.8119 19.8026 3.84452 19.1276 3.1671V3.1671ZM18.1876 5.45432C17.7001 8.40145 16.1151 11.3411 13.7276 13.7283C11.34 16.1155 8.40254 17.7003 5.45502 18.1877C5.08502 18.2502 4.70502 18.1252 4.43502 17.8578L1.82251 15.2456L4.59252 12.4734L7.58753 15.4731L7.61003 15.4956L8.15004 15.2956C9.78736 14.6937 11.2742 13.743 12.5075 12.5094C13.7409 11.2758 14.6912 9.78881 15.2926 8.15148L15.4926 7.61155L12.4726 4.59443L15.2426 1.82227L17.8551 4.43445C18.1251 4.70441 18.2501 5.08437 18.1876 5.45432Z"></path>
</symbol>
<symbol id="close" viewBox="0 0 24 24">
<path d="M18 6L6 18" stroke="white" stroke-width="2" stroke-linecap="round" stroke-linejoin="round"/>
<path d="M6 6L18 18" stroke="white" stroke-width="2" stroke-linecap="round" stroke-linejoin="round"/>
</symbol>
<symbol id="burger" viewBox="0 0 18 16">
<path d="M0 0H18V2H0V0ZM6 7H18V9H6V7ZM0 14H18V16H0V14Z"></path>
</symbol>
<symbol id="modal-close" viewBox="0 0 14 14">
<path d="M13 1L1 13M13 13L1 1L13 13Z" stroke="black" stroke-width="2" stroke-linecap="round"></path>
</symbol>
</defs>
</svg>
